<svg xmlns="http://www.w3.org/2000/svg" version="1.1" xmlns:xlink="http://www.w3.org/1999/xlink" xmlns:svgjs="http://svgjs.dev/svgjs" width="1500" height="272" viewBox="0 0 1500 272"><g transform="matrix(1,0,0,1,-0.9090909090909918,-1.5805741451818847)"><svg viewBox="0 0 396 72" data-background-color="#ffffff" preserveAspectRatio="xMidYMid meet" height="272" width="1500" xmlns="http://www.w3.org/2000/svg" xmlns:xlink="http://www.w3.org/1999/xlink"><g id="tight-bounds" transform="matrix(1,0,0,1,0.2400000000000091,0.41838727372461904)"><svg viewBox="0 0 395.52 71.16322545255075" height="71.16322545255075" width="395.52"><g><svg viewBox="0 0 395.52 71.16322545255075" height="71.16322545255075" width="395.52"><g><svg viewBox="0 0 395.52 71.16322545255075" height="71.16322545255075" width="395.52"><g id="textblocktransform"><svg viewBox="0 0 395.52 71.16322545255075" height="71.16322545255075" width="395.52" id="textblock"><g><svg viewBox="0 0 395.52 71.16322545255075" height="71.16322545255075" width="395.52"><g transform="matrix(1,0,0,1,0,0)"><svg width="395.52" viewBox="1.55 -38.9 273.43 49.2" height="71.16322545255075" data-palette-color="#ffffff"><g class="wordmark-text-0" data-fill-palette-color="primary" id="text-0"><path d="M18.8 0.1L18.8 0.1Q13.9 0.1 9.98-1.93 6.05-3.95 3.8-7.95 1.55-11.95 1.55-17.8L1.55-17.8Q1.55-23.65 3.83-27.9 6.1-32.15 10.08-34.43 14.05-36.7 19.15-36.7L19.15-36.7Q25.05-36.7 28.2-35.05 31.35-33.4 31.35-30.15L31.35-30.15Q31.35-27.65 30-26.03 28.65-24.4 26.3-24.4L26.3-24.4Q24.3-24.4 22.43-24.93 20.55-25.45 18.05-25.45L18.05-25.45Q14.85-25.45 13-23.6 11.15-21.75 11.15-18.75L11.15-18.75Q11.15-15.8 13-13.83 14.85-11.85 18.05-11.85L18.05-11.85Q19.75-11.85 21.18-12.13 22.6-12.4 23.98-12.7 25.35-13 26.95-13L26.95-13Q29.6-13 30.85-11.28 32.1-9.55 32.1-7L32.1-7Q32.1-4.45 30.25-2.88 28.4-1.3 25.38-0.6 22.35 0.1 18.8 0.1ZM34.25-13L34.25-13Q34.25-16.95 35.82-19.95 37.4-22.95 40.32-24.65 43.25-26.35 47.3-26.35L47.3-26.35Q50.45-26.35 52.97-25.2 55.5-24.05 56.95-22.13 58.4-20.2 58.4-17.9L58.4-17.9Q58.4-15.5 57-14.5 55.6-13.5 52.85-13.5L52.85-13.5 42.35-13.5Q42.35-12.2 43.37-11.35 44.4-10.5 46.85-10.5L46.85-10.5Q48.1-10.5 49.17-10.75 50.25-11 51.37-11.23 52.5-11.45 53.9-11.45L53.9-11.45Q55.9-11.45 57.2-10.03 58.5-8.6 58.5-6.1L58.5-6.1Q58.5-3.15 55.47-1.5 52.45 0.15 47.55 0.15L47.55 0.15Q44.1 0.15 41.07-1.2 38.05-2.55 36.15-5.48 34.25-8.4 34.25-13ZM42.5-15.15L50.45-15.15Q51.2-15.15 50.95-15.85L50.95-15.85Q50.75-16.55 49.75-17.3 48.75-18.05 46.85-18.05L46.85-18.05Q44.65-18.05 43.57-17.1 42.5-16.15 42.5-15.15L42.5-15.15ZM78.45 0L78.45 0Q75.7 0 73.87-1.7 72.05-3.4 71.55-6.1L71.55-6.1 70.65-6.1 70.65 5.4Q70.65 7.45 69.5 8.88 68.35 10.3 66 10.3L66 10.3Q63.75 10.3 62.52 8.88 61.3 7.45 61.3 5.3L61.3 5.3 61.3-13.4Q61.3-15.9 61.12-17.63 60.95-19.35 60.8-20.75L60.8-20.75Q60.6-22.85 61.65-24.33 62.7-25.8 65.05-26.1L65.05-26.1Q68.1-26.5 69.37-25.03 70.65-23.55 70.65-20.45L70.65-20.45 70.65-18.05 70.85-18Q71.1-19.95 72.02-21.83 72.95-23.7 74.65-24.93 76.35-26.15 78.95-26.15L78.95-26.15Q83.3-26.15 85.42-22.68 87.55-19.2 87.55-13.4L87.55-13.4Q87.55 0 78.45 0ZM70.45-13.5L70.45-13.5Q70.45-12.7 70.65-12.25L70.65-12.25Q70.95-11.3 71.92-10.88 72.9-10.45 74.85-10.45L74.85-10.45Q77.35-10.45 78.27-11.2 79.2-11.95 79.2-13.5L79.2-13.5Q79.2-15.1 78.3-15.83 77.4-16.55 74.9-16.55L74.9-16.55Q72.9-16.55 71.92-16.13 70.95-15.7 70.65-14.75L70.65-14.75Q70.45-14.3 70.45-13.5ZM107.54-11.55L100.64-11.55 100.64-5.3Q100.64-2.7 99.27-1.35 97.89 0 95.64 0L95.64 0 95.59 0Q93.14 0 91.72-1.35 90.29-2.7 90.29-5.3L90.29-5.3 90.29-12.35Q90.29-17.65 91.89-20.4 93.49-23.15 95.94-24.35L95.94-24.35 95.69-25.3 94.84-25.3Q92.54-25.3 91.22-26.78 89.89-28.25 89.84-30.8L89.84-30.8Q89.79-33.3 91.17-34.85 92.54-36.4 94.84-36.4L94.84-36.4 107.99-36.4Q113.04-36.4 116.22-33.38 119.39-30.35 119.39-23.85L119.39-23.85Q119.39-19.15 117.74-16.45 116.09-13.75 113.39-12.65 110.69-11.55 107.54-11.55L107.54-11.55ZM99.99-25.1L99.99-21.2Q99.99-20.1 100.42-19.75 100.84-19.4 101.94-19.4L101.94-19.4 106.59-19.4Q108.69-19.4 109.64-20.38 110.59-21.35 110.59-23.15L110.59-23.15Q110.59-24.95 109.64-25.9 108.69-26.85 106.59-26.85L106.59-26.85 101.94-26.85Q100.84-26.85 100.42-26.55 99.99-26.25 99.99-25.1L99.99-25.1ZM134.09 0.1L134.09 0.1Q128.24 0.1 124.77-3.38 121.29-6.85 121.29-13.2L121.29-13.2Q121.29-17.1 122.89-20.05 124.49-23 127.37-24.68 130.24-26.35 134.09-26.35L134.09-26.35Q138.39-26.35 141.24-24.68 144.09-23 145.52-20.05 146.94-17.1 146.94-13.2L146.94-13.2Q146.94-6.85 143.77-3.38 140.59 0.1 134.09 0.1ZM127.24-14.05L127.24-14.05Q127.24-12.5 128.79-11.88 130.34-11.25 134.09-11.25L134.09-11.25Q137.84-11.25 139.39-11.88 140.94-12.5 140.94-14.05L140.94-14.05Q140.94-15.55 139.39-16.15 137.84-16.75 134.09-16.75L134.09-16.75Q130.34-16.75 128.79-16.15 127.24-15.55 127.24-14.05ZM154.34 0L154.34 0Q151.99 0 150.69-1.35 149.39-2.7 149.39-4.75L149.39-4.75 149.39-21.15Q149.39-23.3 150.69-24.73 151.99-26.15 154.34-26.15L154.34-26.15Q156.69-26.15 157.94-24.73 159.19-23.3 159.19-21.25L159.19-21.25 159.19-20.2 160.14-20.2Q160.34-22.85 162.14-24.55 163.94-26.25 166.39-26.25L166.39-26.25Q168.84-26.25 170.26-24.75 171.69-23.25 171.69-20.75L171.69-20.75Q171.69-18.4 170.34-16.85 168.99-15.3 166.89-15.3L166.89-15.3Q165.14-15.3 163.96-16.13 162.79-16.95 162.24-18.05L162.24-18.05Q160.64-18.25 159.91-17.73 159.19-17.2 159.19-15.65L159.19-15.65 159.19-4.75Q159.19-2.7 157.94-1.35 156.69 0 154.34 0ZM187.99 0.15L187.99 0.15Q185.34 0.15 183.21-1.05 181.09-2.25 179.89-4.48 178.69-6.7 178.69-9.7L178.69-9.7 178.69-18.5 176.84-18.25Q175.34-18.05 174.19-19.3 173.04-20.55 173.04-22.45L173.04-22.45Q173.04-24.35 174.19-25.58 175.34-26.8 176.84-26.6L176.84-26.6 178.69-26.35 178.64-29.75Q178.59-31.75 179.79-32.93 180.99-34.1 183.29-34.1L183.29-34.1Q185.59-34.1 186.84-32.93 188.09-31.75 187.99-29.75L187.99-29.75 187.89-26.35 190.54-26.7Q193.24-27.1 194.64-25.73 196.04-24.35 196.04-22.45L196.04-22.45Q196.04-20.55 194.66-19.18 193.29-17.8 190.69-18.15L190.69-18.15 187.89-18.5 187.89-11.05Q187.89-10.4 188.34-9.88 188.79-9.35 189.44-9.55L189.44-9.55Q190.19-9.75 191.01-10.4 191.84-11.05 193.14-11.05L193.14-11.05Q195.09-11.05 196.14-9.65 197.19-8.25 197.19-6.2L197.19-6.2Q197.19-4.6 196.06-3.13 194.94-1.65 192.89-0.75 190.84 0.15 187.99 0.15ZM207.63 0L207.63 0Q205.53 0 204.21-1.33 202.88-2.65 202.88-4.65L202.88-4.65 202.88-15.8Q201.58-15.5 200.53-16.15 199.48-16.8 198.86-18.1 198.23-19.4 198.23-20.95L198.23-20.95Q198.23-22.5 198.88-23.83 199.53-25.15 200.61-25.85 201.68-26.55 202.98-26.15L202.98-26.15Q203.23-29.85 204.18-32.73 205.13-35.6 207.11-37.25 209.08-38.9 212.28-38.9L212.28-38.9Q215.03-38.9 216.68-37.77 218.33-36.65 219.01-35 219.68-33.35 219.43-31.65L219.43-31.65Q219.18-30 218.08-28.78 216.98-27.55 214.83-27.55L214.83-27.55Q213.33-27.55 212.33-28.15 211.33-28.75 210.66-29.63 209.98-30.5 209.48-31.3L209.48-31.3Q208.23-33.3 206.93-32.65L206.93-32.65Q206.28-32.3 206.23-31.53 206.18-30.75 206.73-29.75L206.73-29.75 207.83-27.85Q208.68-26.45 209.63-26.03 210.58-25.6 212.03-25.8L212.03-25.8 214.43-26.15Q216.73-26.5 218.18-24.9 219.63-23.3 219.63-20.95L219.63-20.95Q219.63-18.5 218.16-17.03 216.68-15.55 214.53-15.8L214.53-15.8 212.43-16.05 212.43-4.65Q212.43-2.65 211.13-1.33 209.83 0 207.63 0ZM234.03 0.1L234.03 0.1Q228.18 0.1 224.71-3.38 221.23-6.85 221.23-13.2L221.23-13.2Q221.23-17.1 222.83-20.05 224.43-23 227.31-24.68 230.18-26.35 234.03-26.35L234.03-26.35Q238.33-26.35 241.18-24.68 244.03-23 245.46-20.05 246.88-17.1 246.88-13.2L246.88-13.2Q246.88-6.85 243.71-3.38 240.53 0.1 234.03 0.1ZM227.18-14.05L227.18-14.05Q227.18-12.5 228.73-11.88 230.28-11.25 234.03-11.25L234.03-11.25Q237.78-11.25 239.33-11.88 240.88-12.5 240.88-14.05L240.88-14.05Q240.88-15.55 239.33-16.15 237.78-16.75 234.03-16.75L234.03-16.75Q230.28-16.75 228.73-16.15 227.18-15.55 227.18-14.05ZM229.13-27.75L229.13-27.75Q226.98-27.75 225.81-28.85 224.63-29.95 224.63-31.8L224.63-31.8Q224.63-33.7 225.83-34.9 227.03-36.1 229.13-36.1L229.13-36.1Q231.13-36.1 232.31-34.93 233.48-33.75 233.48-31.85L233.48-31.85Q233.48-30 232.36-28.88 231.23-27.75 229.13-27.75ZM234.53-31.8L234.53-31.8Q234.53-33.7 235.73-34.9 236.93-36.1 239.03-36.1L239.03-36.1Q241.03-36.1 242.21-34.93 243.38-33.75 243.38-31.85L243.38-31.85Q243.38-30 242.26-28.88 241.13-27.75 239.03-27.75L239.03-27.75Q236.88-27.75 235.71-28.85 234.53-29.95 234.53-31.8ZM259.03 10.3L259.03 10.3Q255.68 10.3 253.55 9.2 251.43 8.1 250.23 6.3L250.23 6.3Q249.23 4.75 249.1 3.05 248.98 1.35 249.73-0.13 250.48-1.6 251.98-2.4L251.98-2.4Q253.53-3.25 255.08-3.08 256.63-2.9 257.93-1.93 259.23-0.95 259.93 0.6L259.93 0.6Q260.68 2.25 261.45 3.03 262.23 3.8 263.48 3.35L263.48 3.35Q264.68 2.95 264.35 1.15 264.03-0.65 263.03-3.1L263.03-3.1 261.18-3.1Q259.03-3.1 256.88-4.65 254.73-6.2 253.28-9.55L253.28-9.55 249.18-19.05Q248.23-21.3 249-23.2 249.78-25.1 251.83-25.95L251.83-25.95Q253.73-26.8 255.58-26.05 257.43-25.3 258.48-22.85L258.48-22.85 262.28-14Q263.23-11.85 264.35-10.9 265.48-9.95 266.73-10.6L266.73-10.6Q267.83-11.2 267.93-12.28 268.03-13.35 266.88-14.9L266.88-14.9Q266.38-15.6 265.7-16.45 265.03-17.3 264.5-18.43 263.98-19.55 263.98-20.95L263.98-20.95Q263.98-23.3 265.58-24.83 267.18-26.35 269.78-26.35L269.78-26.35Q272.13-26.35 273.55-24.85 274.98-23.35 274.98-20.95L274.98-20.95Q274.98-19.25 274.58-17.2 274.18-15.15 273.68-13.4L273.68-13.4 270.08-0.25Q269.28 2.7 267.98 5.1 266.68 7.5 264.53 8.9 262.38 10.3 259.03 10.3Z" fill="#ffffff" data-fill-palette-color="primary"></path></g></svg></g></svg></g></svg></g></svg></g></svg></g><defs></defs></svg><rect width="395.52" height="71.16322545255075" fill="none" stroke="none" visibility="hidden"></rect></g></svg></g></svg>